name Walk3.mot
datacolumns 19
datarows 10
range 2.28800000 2.29700000
endheader

                time	   L_ground_force_vx	   L_ground_force_vy	   L_ground_force_vz	   L_ground_force_px	   L_ground_force_py	   L_ground_force_pz	   R_ground_force_vx	   R_ground_force_vy	   R_ground_force_vz	   R_ground_force_px	   R_ground_force_py	   R_ground_force_pz	   L_ground_torque_x	   L_ground_torque_y	   L_ground_torque_z	   R_ground_torque_x	   R_ground_torque_y	   R_ground_torque_z	
          2.28800000	        -12.20727659	        480.20113318	         42.46641966	          0.44287395	          0.00000000	          0.18534445	         -0.14329151	        -21.91448470	         -0.11178993	         -0.14365649	          0.00000000	          0.21568921	          0.00000000	         -1.16830839	          0.00000000	          0.00000000	          0.00162641	          0.00000000	
          2.28900000	        -11.64227001	        480.00233808	         42.73388045	          0.44321015	          0.00000000	          0.18525145	         -0.14481098	        -21.90590576	         -0.11121641	         -0.14366159	          0.00000000	          0.21572516	          0.00000000	         -1.18391694	          0.00000000	          0.00000000	          0.00167588	          0.00000000	
          2.29000000	        -11.07811318	        479.88953873	         42.99523379	          0.44354478	          0.00000000	          0.18516108	         -0.14620471	        -21.89611516	         -0.11060364	         -0.14366759	          0.00000000	          0.21576352	          0.00000000	         -1.19970355	          0.00000000	          0.00000000	          0.00172974	          0.00000000	
          2.29100000	        -10.51499272	        479.86247724	         43.24957822	          0.44387788	          0.00000000	          0.18507343	         -0.14747731	        -21.88511896	         -0.10995153	         -0.14367441	          0.00000000	          0.21580430	          0.00000000	         -1.21569388	          0.00000000	          0.00000000	          0.00178780	          0.00000000	
          2.29200000	         -9.95309542	        479.92084371	         43.49605125	          0.44420950	          0.00000000	          0.18498860	         -0.14863344	        -21.87292530	         -0.10926010	         -0.14368197	          0.00000000	          0.21584752	          0.00000000	         -1.23191284	          0.00000000	          0.00000000	          0.00184985	          0.00000000	
          2.29300000	         -9.39260625	        480.06427541	         43.73383242	          0.44453971	          0.00000000	          0.18490666	         -0.14967778	        -21.85954461	         -0.10852945	         -0.14369019	          0.00000000	          0.21589318	          0.00000000	         -1.24838470	          0.00000000	          0.00000000	          0.00191572	          0.00000000	
          2.29400000	         -8.83370660	        480.29235684	         43.96214587	          0.44486855	          0.00000000	          0.18482769	         -0.15061501	        -21.84498979	         -0.10775980	         -0.14369901	          0.00000000	          0.21594127	          0.00000000	         -1.26513298	          0.00000000	          0.00000000	          0.00198518	          0.00000000	
          2.29500000	         -8.27657285	        480.60462033	         44.18026259	          0.44519608	          0.00000000	          0.18475178	         -0.15144978	        -21.82927641	         -0.10695153	         -0.14370835	          0.00000000	          0.21599177	          0.00000000	         -1.28218047	          0.00000000	          0.00000000	          0.00205803	          0.00000000	
          2.29600000	         -7.72137565	        481.00054677	         44.38750222	          0.44552237	          0.00000000	          0.18467898	         -0.15218673	        -21.81242293	         -0.10610511	         -0.14371815	          0.00000000	          0.21604465	          0.00000000	         -1.29954929	          0.00000000	          0.00000000	          0.00213402	          0.00000000	
          2.29700000	         -7.16827967	        481.47956567	         44.58323436	          0.44584749	          0.00000000	          0.18460935	         -0.15283044	        -21.79445098	         -0.10522119	         -0.14372835	          0.00000000	          0.21609986	          0.00000000	         -1.31726099	          0.00000000	          0.00000000	          0.00221293	          0.00000000	
